
        <svg xmlns="http://www.w3.org/2000/svg" xmlns:xlink="http://www.w3.org/1999/xlink" version="1.1" width="3007.3770434312546" height="3154.2168674698796" viewBox="0 0 3007.3770434312546 3154.2168674698796">
			
			<g transform="scale(7.710843373493976) translate(10, 10)">
				<defs id="SvgjsDefs1312"><linearGradient id="SvgjsLinearGradient1321"><stop id="SvgjsStop1322" stop-color="#8f5e25" offset="0"/><stop id="SvgjsStop1323" stop-color="#fbf4a1" offset="0.5"/><stop id="SvgjsStop1324" stop-color="#8f5e25" offset="1"/></linearGradient><linearGradient id="SvgjsLinearGradient1325"><stop id="SvgjsStop1326" stop-color="#8f5e25" offset="0"/><stop id="SvgjsStop1327" stop-color="#fbf4a1" offset="0.5"/><stop id="SvgjsStop1328" stop-color="#8f5e25" offset="1"/></linearGradient><linearGradient id="SvgjsLinearGradient1329"><stop id="SvgjsStop1330" stop-color="#8f5e25" offset="0"/><stop id="SvgjsStop1331" stop-color="#fbf4a1" offset="0.5"/><stop id="SvgjsStop1332" stop-color="#8f5e25" offset="1"/></linearGradient><linearGradient id="SvgjsLinearGradient1333"><stop id="SvgjsStop1334" stop-color="#8f5e25" offset="0"/><stop id="SvgjsStop1335" stop-color="#fbf4a1" offset="0.5"/><stop id="SvgjsStop1336" stop-color="#8f5e25" offset="1"/></linearGradient></defs><g id="SvgjsG1313" featureKey="rootContainer" transform="matrix(3.7159740495665785,0,0,3.7159740495665785,0,-0.7431948209877813)" fill="#000"><g xmlns="http://www.w3.org/2000/svg"><path d="M99.4 43.1c0-.4-.1-.8-.1-1.2l-.2-1.2c-.2-1-.4-2-.7-3l-.4-1.4-.4-1.4-.5-1.6-.2-.8-.3-.8-.6-1.5-.6-1.5a13.7 13.7 0 0 0-.8-1.6l-.4-.7-.2-.3-.2-.3-1.8-2.5c-.9-1.1-1-1-.4.3s1.4 3.2 2.1 4.8l.3.6.2.6.5 1.3.5 1.3.3.7.2.7.6 1.8.4 1.8q.3 1.5.5 3c-.3-.7-.6-1.5-.9-2.1s-1.2-1.6-.9-.1l.2 1.1.3 1.3.2.7.2.7.4 1.5.4 1.5.4 1.4c.2.8.4 1.5.6 2.1s.6 1.9.8.8 0-.5.1-.6a7 7 0 0 0 .4-1.4 15.9 15.9 0 0 0 .1-3.9zM20 11.7l1.2-.7 1.3-.7.7-.4.7-.4 1.4-.9 1.3-.7.9-.5.9-.4.8-.5.8-.4 1.5-.9 1.5-.8.6-.5c.1-.1.2-.3.2-.3l-.6-.2-1.2.1-1.7.5-1 .4-1 .5-1.3.8-.4.2-.4.3-.8.5-.8.5-.8.6-1.1.8-1 .8-.9.8-.8.8c-1.1.9-.9 1.3 0 .7zM26.7 92l-1-.8-1.4-1.1-.7-.5-.7-.5-1.5-1.1-1.4-1-.4-.3-.3-.3-.7-.5-.7-.5-.7-.5-1.2-1.1-1.3-1.1-.4-.3-.9-.6.2.4.6.9.5.6.5.7.2.3.3.3 1.2 1.4 1.5 1.4.4.3.4.3.9.7.7.6.8.5 1.6.9 1.6.8 1.6.7c.7.3 1.2.4 1.2.3l-.2-.2-.3-.2zM6.1 29.8l.6-.9.7-1.1.4-.6.4-.6.8-1.3.8-1.3.7-1.2 1.2-2.1c.3-.6.4-1 .2-1l-.4.2-.3.3-.4.4-.8.9-.4.5-.4.5-.7 1-.7 1A37.7 37.7 0 0 0 5.6 29c-.6 1.8-.4 2 .5.8zM64.6 3a33.2 33.2 0 0 1 7.5 3.3l1.3.7 1.2.7 1 .6.8.5 1.2.6c.1 0 .1 0 0-.1l-.3-.4-1.4-1.3L74 6.5l-.8-.4-.8-.4-.8-.4-.8-.3-1.6-.7-1.6-.8-1.3-.5-1.5-.5c-.8-.2-1.6-.4-1.7-.2s.4.4 1.5.7zM46.8.5h3.7L50 .2h-3.2a1.8 1.8 0 0 0-.9.4z"/><path d="M16.4 89.4a3.6 3.6 0 0 0-.6-1.1l-.6-.8-.8-.9-.9-1-.9-1-.4-.5-.2-.3-.2-.3-.8-1.1-.4-.5-.4-.5-.7-1.1-.4-.5-.3-.6-.6-1.1-.2-.3-.2-.3-.3-.7-.3-.7-.3-.7c-.4-.9-.8-1.8-1.2-2.8l-.5-1.4-.5-1.4-.2-.7-.2-.7-.4-1.4q-.6-2-1-4v.2l.4 1.4.5 1.8.8 2.2.4.7.4.7.8 1.5.9 1.5 1 1.5c.4.6.5.5.2-.3l-.3-.8-.4-.9-.8-1.8-.8-1.9-.2-.5-.2-.5-.4-1-.3-.6-.2-.6-.5-1.3a48.8 48.8 0 0 1-1.9-9.2v-.3c0-.5 0-1.1.1-1.6A76 76 0 0 1 4 43.3 52.2 52.2 0 0 1 7 34c.4-.9.8-1.7 1.2-2.6l.8-1.2.7-1.2.8-1.2.8-1.2c.6-.7 1.2-1.5 1.8-2.2l.7-.8.4-.4.4-.4.8-.8.4-.4.2-.2.2-.2 1.7-1.5 1.8-1.5 1.2-1.1.6-.6.7-.5 1.4-1.1L25 14l.3-.3.3-.2.5-.3.3-.4c0-.1-.5 0-1.5.4l-1.3.6a35.5 35.5 0 0 0-7 5.1l-1 1.1-.5.6-.5.6-1 1.1-1 1.2c-1.3 1.6-2.5 3.3-3.7 5L8 29.6l-.4.5-.2.3-.2.3-.7 1.1-.7 1.1-.6 1-.3.5-.3.5-.9 1.9-.8 1.9-.2.5-.2.5-.3.8v-.8l.2-1.1v-.7l-.2.7-.3 1.1.1 1.2-.2 1.1-.2 1.1-.2 1.3-.4 1.7c-.3 1.2-.5 2.4-.6 3.6S.2 52 .1 53.2 0 55.6 0 56.8a40.4 40.4 0 0 0 1 7.9 50.2 50.2 0 0 0 2.4 7.8l.8 1.9.9 1.8.2.5.2.4.5.9.5.9.5.9.6 1.1a28.1 28.1 0 0 0 7.5 8.1c.7.5 1.5 1 1.3.4z"/><path d="M39.7 103.2l-4.9-1.9-.6-.3-.6-.3-1.3-.6-1.3-.6-.7-.3-.7-.3-1.7-.9-1.5-.9a76.3 76.3 0 0 1-6.8-5.1l-1.7-1.5c-1.3-1.1-2-1.1-1.3-.1l.4.5a6.8 6.8 0 0 0 .7 1.2l1.2 1.4 1.6 1.4.9.7 1 .7 2.4 1.7 1.3.8 1.3.7 1.4.8.7.4.7.3 1.5.7 1.5.6 1.7.6.8.2h.8l2.9.4c1.6.3 1.6.1.3-.3zM62.3 8.4l.9.3.8.3 1.8.7 1.9.7.5.2.5.2 1 .4.6.2.6.3 1.2.6a48.6 48.6 0 0 1 7.9 5.1l1.3 1.1.6.6.6.6 1.2 1.2.3.3.3.3.6.6a37.1 37.1 0 0 1 2.6 2.7l2.4 2.9.7.9.7.9.5.5-.3-.7-.6-1-.7-1-.6-1-.6-.9a38.9 38.9 0 0 0-7-7.8l-.5-.5-.6-.4-1.1-.8-.6-.4-.6-.4-1.2-.8-1.2-.7-1.2-.7-1.3-.7-1.3-.7-1.4-.9-2.1-1-.7-.2-.8-.2-1.6-.4-1.8-.5-1.8-.3c-.8-.2-.7 0 .1.4zm36.3 51.8a26.8 26.8 0 0 0 .2-9.2c-.2-.9-.4-1.7-.7-1.2a3.5 3.5 0 0 0-.4 1.2c0 .3-.1.6-.1 1s-.1.7-.1 1.2 0 .9-.1 1.3v2.7l-.2 1.4v1.3l-.2 1.3v.6l-.2.6-.8 1.1v.7l-.3.7-.3.7-.3.7c-.4.9-.7 1.9-1.1 2.8l-.6 1.4-.6 1.3-.3.7-.3.7-.7 1.3a42.9 42.9 0 0 1-3.9 5.8 38.5 38.5 0 0 1-4.9 5 76.1 76.1 0 0 1-8.5 5.7 52.1 52.1 0 0 1-8.7 4.4l-2.7.9-1.4.4-1.4.3-1.4.3-1.4.2-2.9.2h-6.5l-2.3-.3h-3.4l-1.8-.2-1.7-.3h-1.9c-.1.1.4.4 1.3.8l1.3.5a35.5 35.5 0 0 0 8.7 1h6.2c2.1-.2 4.1-.5 6.2-.9l1.4-.3H63l1.2-.2 1.2-.3 1.1-.3h.6l.6-.2 1.9-.7 1.9-.8.5-.2.5-.2.9-.5.5-.2h.5l.9-.5 1.5-.9 1.5-.9 2.9-2.1 2.8-3.1 2.6-2.5a40.3 40.3 0 0 0 4.9-6.3 50.4 50.4 0 0 0 3.8-7.2l.8-1.9.7-1.9.2-.5v-.2l-.4 1.6-.3 1-.3.9-.3.9-.3.9-.4 1.7-.4 1.6a3.5 3.5 0 0 0-.1.7c0 .2 0 .3.1.4s.3-.1.6-.3l.8-1a10.6 10.6 0 0 0 .9-1.5l.4-1 .4-1 .4-1.5v-1l.2-1 .2-1 .2-1 .2-1.3v-1.2c0-.4.1-.8.1-1.2V61c0-.3-.1-1.3-.4-.8zM35.9 8.9h.8l1.3-.2 1.8-.2h1.8l1.7-.3 1.7-.5h3.4l1.7-.2h2.2l1.1-.2H53l-1-.9h-9.3l-.9.2L40 7l-1.7.6-1.6.7c-.7.3-1.1.5-1.1.6zm37.4 89.5a33.3 33.3 0 0 1-7.6 3l-1.4.4-1.3.4-1.1.3-.9.2-1.3.5c-.1.1 0 .1.1.1h.6l1.8-.2 2.1-.6.8-.3.8-.3.8-.3.8-.3 1.7-.6 1.7-.6 1.3-.6 1.4-.7c.8-.4 1.4-.9 1.3-1.1s-.6.2-1.6.7zm14.3-10.9l-.7.7-.9.8-.4.6-.2.3v.3l.5-.2.5-.3a14.4 14.4 0 0 0 1.8-1.9 1.8 1.8 0 0 0 .3-.9z"/><circle cx="43.8" cy="103.1" r=".6"/><circle cx="48.7" cy="104.5" r=".4"/><circle cx="31.8" cy="95.1" r=".3"/><circle cx="47.3" cy="102.2" r=".3"/><circle cx="76.6" cy="96.5" r=".5"/><circle cx="80" cy="95.1" r=".9"/><circle cx="82.8" cy="92.2" r=".4"/><circle cx="90.5" cy="85.3" r=".7"/><circle cx="92.4" cy="81.3" r=".4"/><circle cx="93.9" cy="78.4" r=".3"/><circle cx="43.2" cy="1.6" r=".4"/><circle cx="36.8" cy="2.1" r=".4"/><circle cx="40.5" cy="3.7" r=".3"/><circle cx="55.7" cy="1" r=".4"/><circle cx="60.1" cy="1.7" r=".4"/><circle cx="79.5" cy="10.5" r=".5"/><circle cx="82.1" cy="13.7" r=".3"/><circle cx="85.9" cy="16.3" r=".5"/><circle cx="87" cy="18.7" r=".2"/><circle cx="84.4" cy="14.2" r=".2"/><circle cx="18" cy="13.7" r=".3"/><circle cx="12.6" cy="19.3" r=".6"/></g></g><g id="SvgjsG1314" featureKey="symbolFeature-0" transform="matrix(3.0785870848303336,0,0,3.0785870848303336,148.764238745509,70)" fill="#000"><g xmlns="http://www.w3.org/2000/svg"><g><g><path d="M16.614,21.622c-0.108,0-0.218-0.035-0.31-0.108c-3.015-2.386-6.307-5.194-7.207-8.323     c-0.381-1.325,0.387-2.712,1.712-3.094c1.325-0.379,2.713,0.388,3.094,1.712c0.532,1.849,4.144,4.708,5.504,5.784     c0.217,0.171,0.253,0.486,0.082,0.702c-0.171,0.217-0.484,0.254-0.702,0.082c-2.583-2.044-5.298-4.391-5.845-6.292     c-0.229-0.795-1.063-1.254-1.857-1.027c-0.794,0.229-1.255,1.062-1.027,1.856c0.818,2.844,3.973,5.525,6.866,7.815     c0.217,0.171,0.253,0.486,0.082,0.702C16.908,21.557,16.762,21.622,16.614,21.622z"/></g><g><path d="M3.903,19.091c-0.213,0-0.411-0.137-0.477-0.351c-0.083-0.264,0.064-0.544,0.328-0.626     c0.559-0.175,2.319-0.966,1.499-3.817c-0.479-1.669-0.281-3.425,0.56-4.943c0.841-1.52,2.223-2.621,3.893-3.101     c3.364-0.958,6.925,0.952,7.985,4.268c0.249,0.234,1.956,1.644,3.124,2.592c0.214,0.174,0.247,0.489,0.073,0.703     c-0.173,0.215-0.489,0.248-0.703,0.073c-3.215-2.609-3.322-2.79-3.374-2.876c-0.021-0.035-0.037-0.072-0.049-0.11     c-0.867-2.853-3.91-4.507-6.781-3.688C8.569,7.62,7.399,8.552,6.687,9.837c-0.711,1.285-0.879,2.771-0.474,4.183     c0.852,2.961-0.632,4.57-2.162,5.048C4.003,19.083,3.953,19.091,3.903,19.091z"/></g><g><path d="M5.5,21c-0.213,0-0.41-0.137-0.477-0.351c-0.083-0.263,0.064-0.544,0.328-0.626c2.072-0.648,2.826-1.712,1.816-6.31     c-0.547-2.494,0.781-4.874,3.089-5.538c2.383-0.682,4.883,0.699,5.568,3.081c0.139,0.483,0.774,1.414,4.485,4.352     c0.217,0.171,0.253,0.486,0.082,0.703c-0.171,0.216-0.484,0.255-0.702,0.082c-4.097-3.242-4.631-4.179-4.826-4.859     c-0.533-1.852-2.473-2.928-4.332-2.396c-1.794,0.516-2.821,2.391-2.388,4.362c1.029,4.688,0.4,6.575-2.495,7.479     C5.6,20.993,5.549,21,5.5,21z"/></g><g><path d="M18,20c-0.128,0-0.256-0.049-0.354-0.146c-0.183-0.183-0.585-0.488-1.05-0.841c-1.791-1.359-4.789-3.633-5.577-6.375     c-0.076-0.266,0.077-0.542,0.342-0.619c0.269-0.076,0.542,0.077,0.619,0.342c0.696,2.422,3.528,4.57,5.22,5.854     c0.515,0.391,0.922,0.7,1.153,0.931c0.195,0.195,0.195,0.512,0,0.707C18.256,19.951,18.128,20,18,20z"/></g><g><path d="M10.5,24c-0.011,0-0.021,0-0.032-0.001c-0.275-0.017-0.485-0.254-0.468-0.53C10.037,22.89,10.304,20,12,20     c1.247,0,1.998,1.02,2.495,1.695c0.133,0.18,0.249,0.342,0.358,0.452c0.195,0.195,0.195,0.512,0,0.707s-0.512,0.195-0.707,0     c-0.138-0.138-0.289-0.338-0.457-0.565C13.267,21.714,12.742,21,12,21c-0.542,0-0.937,1.497-1.001,2.531     C10.982,23.796,10.762,24,10.5,24z"/></g><g><path d="M7.5,23c-0.211,0-0.407-0.134-0.476-0.346c-0.085-0.263,0.059-0.544,0.321-0.63c1.264-0.411,2.105-3.035,1.678-4.372     c-0.084-0.263,0.061-0.544,0.324-0.628c0.263-0.088,0.544,0.061,0.628,0.324c0.531,1.661-0.397,5.003-2.322,5.628     C7.603,22.992,7.551,23,7.5,23z"/></g><g><path d="M3.5,13C3.224,13,3,12.776,3,12.5C3,7.813,6.813,4,11.5,4c4.614,0,6.265,2.665,7.47,4.611     c0.569,0.917,1.06,1.71,1.685,1.913c0.263,0.085,0.407,0.367,0.321,0.63c-0.084,0.262-0.365,0.408-0.63,0.321     c-0.974-0.316-1.554-1.253-2.226-2.338C16.978,7.294,15.557,5,11.5,5C7.364,5,4,8.364,4,12.5C4,12.776,3.776,13,3.5,13z"/></g><g><path d="M4,16.5c-0.184,0-0.36-0.101-0.448-0.276C3.46,16.039,3,15.088,3,14.5C3,14.224,3.224,14,3.5,14S4,14.224,4,14.5     c0,0.261,0.267,0.916,0.447,1.276c0.124,0.247,0.023,0.547-0.224,0.671C4.152,16.483,4.076,16.5,4,16.5z"/></g><g><path d="M18.5,6c-0.169,0-0.334-0.085-0.428-0.241C17.579,4.947,14.844,3,11,3C7.002,3,4.862,5.043,4.427,5.759     C4.285,5.996,3.977,6.07,3.741,5.927S3.429,5.477,3.573,5.241C4.12,4.339,6.521,2,11,2c4.212,0,7.241,2.11,7.927,3.241     c0.144,0.236,0.068,0.543-0.168,0.687C18.678,5.977,18.589,6,18.5,6z"/></g><g><path d="M16.5,2c-0.054,0-0.109-0.009-0.163-0.027c-0.202-0.069-0.394-0.141-0.585-0.211C14.699,1.37,13.704,1,11,1     C8.599,1,8.058,1.277,7.312,1.66C7.128,1.754,6.933,1.854,6.704,1.956c-0.251,0.114-0.548,0-0.661-0.251     c-0.113-0.252,0-0.548,0.251-0.661c0.211-0.095,0.39-0.187,0.56-0.274C7.694,0.34,8.357,0,11,0c2.884,0,4.011,0.419,5.101,0.824     c0.184,0.068,0.368,0.137,0.562,0.204c0.261,0.09,0.4,0.374,0.31,0.635C16.901,1.87,16.707,2,16.5,2z"/></g></g><g><path d="M20.5,9c-0.212,0-0.408-0.135-0.476-0.348c-0.229-0.713-0.942-1.879-0.95-1.89c-0.145-0.235-0.071-0.543,0.164-0.688    c0.235-0.146,0.543-0.072,0.688,0.164c0.032,0.052,0.785,1.28,1.05,2.11c0.084,0.263-0.061,0.544-0.324,0.628    C20.601,8.992,20.55,9,20.5,9z"/></g></g></g><g id="SvgjsG1315" featureKey="nameFeature-0" transform="matrix(5.126904777603739,0,0,5.126904777603739,109,92.22333311354765)" fill="#000"><path d="M6.56 34.8 c2.8 0.2 4.08 0 6.84 -0.64 c-0.56 1.24 -0.84 2.64 -0.76 4 c0.04 0.76 0.2 1.52 0.68 2.12 c-1 -0.36 -2 -0.36 -3.08 -0.4 c-2.88 -0.16 -7.36 0.08 -10.24 0.36 c0.88 -1.84 0.72 -3.4 0.12 -5.2 c3.48 -4.4 6.28 -10.08 7.48 -15.52 c-2.8 -0.2 -4.28 0 -7.04 0.64 c0.56 -1.24 1.04 -4.12 0.08 -6.12 c3.8 0.88 9.56 0.72 12.76 0.04 c-0.64 1.72 -0.48 3.76 0.48 5.32 c-3.2 3.6 -5.76 9.84 -7.32 15.4 z M22.661 27.52 c1.16 2.52 3.76 5.24 7.04 6.6 c-2.12 1 -3.32 3.12 -3.92 5.44 c-0.72 -2.32 -3.24 -5.04 -4.76 -6.32 c-0.32 1.72 0.08 5.56 0.72 6.8 c-2.08 -0.72 -4.88 -0.32 -6.4 0.24 c1.28 -5 1.68 -20.68 -0.2 -25.88 c1.4 0.32 5.24 0.28 6.6 -0.4 c-0.36 2.36 -0.6 5.08 -0.76 7.96 c2.2 -2 3.52 -3.68 4.44 -6.84 c0.28 2.12 1.88 4.96 3.84 6.16 c-2.64 1.24 -5.72 4.08 -6.6 6.24 z"/></g><g id="SvgjsG1316" featureKey="sloganFeature-0" transform="matrix(0.6233757611301604,0,0,0.6233757611301604,138.62857344441315,306.10753714608313)" fill="#000"><path d="M4.38 14.02 l0 3.8 l9.2 0 l0 2.18 l-11.38 0 l0 -14.92 l10.5 0 l0 2.2 l-8.32 0 l0 4.52 q0.62 -0.36 1.38 -0.48 q0.56 -0.1 1.44 -0.1 l3.26 0 l0 2.22 l-3.26 0 q-0.82 0 -1.44 0.1 q-0.76 0.14 -1.38 0.48 z M21.740000000000002 6.66 l-0.82 -1.84 l2.4 0 l7.18 15.18 l-2.44 0 l-0.98 -2.18 l-4.54 0 q-1.28 0 -2.3 0.24 q-0.9 0.22 -1.5 0.58 q-0.54 0.32 -0.72 0.66 l-0.38 0.7 l-2.36 0 z M23.340000000000003 15.620000000000001 l2.76 0 l-3.26 -6.3 l-3.3 7.14 q0.44 -0.38 1.34 -0.6 q1.02 -0.24 2.46 -0.24 z M44.900000000000006 15.46 q0 1.46 -0.88 2.6 q-0.86 1.08 -2.37 1.68 t-3.41 0.6 q-1.74 0 -3.38 -0.81 t-2.76 -2.25 l1.56 -1.46 q1.94 2.34 4.58 2.34 q1.16 0 2.12 -0.28 q1.06 -0.32 1.64 -0.9 q0.66 -0.64 0.66 -1.52 q0 -1.06 -0.66 -1.6 q-0.56 -0.46 -1.66 -0.6 q-0.64 -0.08 -2.1 -0.08 q-2.68 0 -4.09 -0.98 t-1.41 -2.88 q0 -1.2 0.71 -2.28 t1.95 -1.72 q1.28 -0.68 2.84 -0.68 q1.76 0 3.18 0.54 q1.52 0.58 2.82 1.82 l-1.36 1.6 q-1.22 -0.98 -2.22 -1.37 t-2.42 -0.39 q-0.82 0 -1.53 0.34 t-1.13 0.91 t-0.42 1.21 q0 1.72 3.18 1.72 q2.54 0 4.02 0.52 q1.4 0.5 2 1.52 q0.54 0.9 0.54 2.4 z M53.040000000000006 11.64 q1.34 -1.4 2.42 -3.12 t1.72 -3.44 l2.5 0 q-1.02 2.38 -2.48 4.56 q-1.32 1.98 -3.08 3.9 l0 6.46 l-2.16 0 l0 -6.46 q-1.76 -1.92 -3.08 -3.9 q-1.46 -2.18 -2.48 -4.56 l2.5 0 q0.64 1.72 1.72 3.44 t2.42 3.12 z M78.30000000000001 6.92 l-1.36 1.6 q-0.66 -0.88 -1.74 -1.32 q-0.88 -0.36 -1.86 -0.36 q-0.74 0 -1.42 0.22 q-0.8 0.28 -1.26 0.78 q-0.54 0.62 -0.54 1.49 t0.63 1.38 t1.59 0.51 l2.2 0 l-0.16 2.18 l-2.08 0 q-0.74 0 -1.38 0.24 q-0.72 0.28 -1.12 0.8 q-0.48 0.58 -0.48 1.42 q0 2.28 3.28 2.28 q1.26 0 2.64 -0.66 q1.3 -0.64 2.2 -1.6 l0.18 -2.48 l-1.54 0 l0.18 -2.18 l5.14 0 l-0.18 2.18 l-1.46 0 l-0.48 6.6 l-2.12 0 l0.12 -1.86 q-1.08 0.96 -2.38 1.52 q-1.26 0.54 -2.3 0.54 q-2.74 0 -4.14 -1.22 q-1.3 -1.12 -1.3 -3.08 q0 -2.5 2.1 -4 q-0.68 -0.46 -1 -1 q-0.34 -0.58 -0.34 -1.36 q0 -1.06 0.44 -2.04 q0.54 -1.26 1.64 -1.98 q1.36 -0.88 3.38 -0.88 q1.66 0 3 0.7 q1.1 0.58 1.92 1.58 z M92.80000000000001 14.02 l0 5.98 l-2.18 0 l0 -14.92 l10.5 0 l0 2.2 l-8.32 0 l0 4.52 q0.62 -0.36 1.38 -0.48 q0.56 -0.1 1.44 -0.1 l3.26 0 l0 2.22 l-3.26 0 q-0.82 0 -1.44 0.1 q-0.76 0.14 -1.38 0.48 z M109.18000000000002 6.66 l-0.82 -1.84 l2.4 0 l7.18 15.18 l-2.44 0 l-0.98 -2.18 l-4.54 0 q-1.28 0 -2.3 0.24 q-0.9 0.22 -1.5 0.58 q-0.54 0.32 -0.72 0.66 l-0.38 0.7 l-2.36 0 z M110.78000000000003 15.620000000000001 l2.76 0 l-3.26 -6.3 l-3.3 7.14 q0.44 -0.38 1.34 -0.6 q1.02 -0.24 2.46 -0.24 z M132.34000000000003 15.46 q0 1.46 -0.88 2.6 q-0.86 1.08 -2.37 1.68 t-3.41 0.6 q-1.74 0 -3.38 -0.81 t-2.76 -2.25 l1.56 -1.46 q1.94 2.34 4.58 2.34 q1.16 0 2.12 -0.28 q1.06 -0.32 1.64 -0.9 q0.66 -0.64 0.66 -1.52 q0 -1.06 -0.66 -1.6 q-0.56 -0.46 -1.66 -0.6 q-0.64 -0.08 -2.1 -0.08 q-2.68 0 -4.09 -0.98 t-1.41 -2.88 q0 -1.2 0.71 -2.28 t1.95 -1.72 q1.28 -0.68 2.84 -0.68 q1.76 0 3.18 0.54 q1.52 0.58 2.82 1.82 l-1.36 1.6 q-1.22 -0.98 -2.22 -1.37 t-2.42 -0.39 q-0.82 0 -1.53 0.34 t-1.13 0.91 t-0.42 1.21 q0 1.72 3.18 1.72 q2.54 0 4.02 0.52 q1.4 0.5 2 1.52 q0.54 0.9 0.54 2.4 z M146.64000000000004 7.279999999999999 l-5.26 0 l0 12.72 l-2.12 0 l0 -12.72 l-5.32 0 l0 -2.2 l12.7 0 l0 2.2 z"/></g>
			</g>
		</svg>
	